<?xml version="1.0" encoding="UTF-8"?>
<svg id="Layer_2" data-name="Layer 2" xmlns="http://www.w3.org/2000/svg" viewBox="0 0 60 60">
  <defs>
    <style>
      .cls-1 {
        fill: #333;
      }
    </style>
  </defs>
  <g id="Layer_1-2" data-name="Layer 1">
    <g>
      <path class="cls-1" d="M52.18,31.51h0c-.64-1.52-4.12-3.3-5.74-3.77l-1.75-1.6-.21-.15c-1.69-.64-3.45-1.03-5.25-1.16-.92-.58-1.91-1.05-2.94-1.4-1.15-.29-3.73,.49-4.79,.84l-.27,.09-.18,.22c-.98,1.19-4.18,5.21-4.18,7.23,0,1.02,.97,1.94,2.1,3,.53,.45,1.02,.96,1.44,1.52,.05,.47,.13,.94,.24,1.4,.25,1.2,.67,3.22,.17,4.01-1.39,2.5-1.69,5.47-.83,8.2,.3,1.04,1.11,1.87,2.14,2.2,.26,.07,.53,.1,.81,.1,1.91,0,4.19-1.57,6.24-2.98,.74-.56,1.53-1.05,2.36-1.47,1.78-.7,2.64-3,3.26-4.68,.13-.38,.28-.74,.45-1.1,.97-1.24,2.23-2.23,3.66-2.87,1.99-.99,4.18-5.49,3.28-7.63Z"/>
      <path class="cls-1" d="M30,0C13.43,0,0,13.43,0,30s13.43,30,30,30,30-13.43,30-30C59.98,13.44,46.56,.02,30,0Zm0,58c-6.53,0-12.86-2.28-17.88-6.47l1.87-2.8c.97-.25,1.84-.81,2.46-1.6,1.33-2.4-.34-5.91-.85-6.87-.05-.96-.22-1.91-.5-2.83-.38-.96-1.96-1.88-2.86-2.34-.65-1.11-1.93-3.61-1.93-5.09-.06-1.31,.95-2.42,2.26-2.47,.01,0,.02,0,.04,0,1.64-.33,3.09-1.29,4.02-2.68,.94-.29,2.99-1.03,3.69-2.25,.75-1.31-.09-4.33-.58-5.82,.25-1.18,.21-2.41-.12-3.58-.47-1.11-1.23-2.08-2.21-2.81-.63-1.44-1.45-2.78-2.44-3.99,3.35-2.14,7.12-3.54,11.05-4.1-.52,.85-.71,1.87-.51,2.85,.34,.94,1.69,1.64,2.82,2.07-.14,1.11-.16,2.94,1.04,3.89,1.19,.95,2.65,.54,3.62,.27l.37-.1c.17,1.34,.23,2.69,.17,4.04v.4s.26,.3,.26,.3c.11,.12,2.66,2.91,5.34,3.28,.14,.02,.28,.03,.42,.03,2.43,0,5.23-2.76,6.18-3.77,2.32-.55,4.61-1.25,6.83-2.12,9.16,12.45,6.5,29.96-5.95,39.12-4.81,3.54-10.63,5.45-16.6,5.45Z"/>
    </g>
  </g>
</svg>