<?xml version="1.0" encoding="UTF-8"?>
<svg id="Layer_2" data-name="Layer 2" xmlns="http://www.w3.org/2000/svg" viewBox="0 0 58 58">
  <defs>
    <style>
      .cls-1 {
        fill: #333;
      }
    </style>
  </defs>
  <g id="Layer_1-2" data-name="Layer 1">
    <g>
      <path class="cls-1" d="M57,26c-.55,0-1-.45-1-1-.01-12.7-10.3-22.99-23-23-.55,0-1-.45-1-1S32.45,0,33,0c13.8,.02,24.98,11.2,25,25,0,.55-.45,1-1,1Z"/>
      <path class="cls-1" d="M45,26c-.55,0-1-.45-1-1,0-6.07-4.93-10.99-11-11-.55,0-1-.45-1-1s.45-1,1-1c7.18,0,12.99,5.82,13,13,0,.55-.45,1-1,1Z"/>
      <path class="cls-1" d="M38.72,35.82l-4.73,5.9c-7.32-4.3-13.42-10.4-17.72-17.72l5.91-4.73c1.42-1.14,1.9-3.1,1.16-4.76L17.95,2.39C17.16,.59,15.17-.36,13.27,.13L3.02,2.79C1.04,3.31-.24,5.22,.04,7.25c3.7,26.32,24.39,47.02,50.71,50.71,2.03,.28,3.94-1,4.46-2.98l2.66-10.25c.49-1.9-.46-3.88-2.26-4.68l-12.13-5.39c-1.67-.74-3.63-.26-4.76,1.16Z"/>
    </g>
  </g>
</svg>