<?xml version="1.0" encoding="UTF-8"?>
<svg id="Layer_2" data-name="Layer 2" xmlns="http://www.w3.org/2000/svg" viewBox="0 0 63 63">
  <defs>
    <style>
      .cls-1 {
        stroke-width: 5px;
      }

      .cls-1, .cls-2, .cls-3 {
        fill: none;
        stroke: #333;
        stroke-miterlimit: 10;
      }

      .cls-1, .cls-3 {
        stroke-linecap: square;
      }

      .cls-2, .cls-3 {
        stroke-width: 2px;
      }
    </style>
  </defs>
  <g id="Layer_1-2" data-name="Layer 1">
    <g>
      <path class="cls-2" d="M14.88,7.73c1.83,1.35,3.23,4.79,3.23,4.79,.9,.64,1.61,1.5,2.07,2.5,.28,1.08,.29,2.21,.03,3.3,0,0,1.4,4.11,.74,5.27s-3.46,1.89-3.46,1.89c-.77,1.31-2.06,2.24-3.54,2.55-1.82,.1-3.21,1.65-3.13,3.46,0,2.22,2.22,5.85,2.22,5.85,0,0,2.31,1.13,2.64,1.95,.25,.9,.4,1.82,.44,2.74,0,0,2.2,3.87,.96,6.1-.39,.71-2.22,1.24-2.22,1.24l-2.57,3.85"/>
      <path class="cls-2" d="M54.39,13.69c-2.49,1.04-5.06,1.86-7.69,2.46,0,0-3.58,3.98-5.92,3.65s-4.74-2.97-4.74-2.97c0,0,.16-4.86-.58-5.11s-2.72,1.07-3.95,.08-.52-3.78-.52-3.78c0,0-2.69-.84-3.02-1.74s.98-2.92,1.23-3.7"/>
      <path class="cls-3" d="M52.76,33.4c.66,1.56-1.24,5.56-2.8,6.34-1.6,.72-2.99,1.84-4.06,3.23-.58,.91-1.33,4.65-3.23,5.39s-6.39,4.97-8.77,4.31-2.39-6.34-.74-8.9c.98-1.53-.16-4.86-.25-6.01s-3.54-3.3-3.54-4.45c0-1.81,3.95-6.59,3.95-6.59,0,0,3.24-1.07,4.23-.82,1,.37,1.96,.84,2.85,1.4,0,0,3.71,.33,5.11,1.07l1.9,1.73s4.69,1.73,5.35,3.3Z"/>
      <circle class="cls-1" cx="31.5" cy="31.5" r="29"/>
    </g>
  </g>
</svg>