<?xml version="1.0" encoding="UTF-8"?>
<svg id="Layer_2" data-name="Layer 2" xmlns="http://www.w3.org/2000/svg" viewBox="0 0 32 32">
  <defs>
    <style>
      .cls-1 {
        fill: #333;
      }
    </style>
  </defs>
  <g id="Layer_1-2" data-name="Layer 1">
    <g>
      <path class="cls-1" d="M16,0C7.16,0,0,7.16,0,16s7.16,16,16,16,16-7.16,16-16S24.84,0,16,0Zm8,16.6c0,1.29-.16,2.59-.16,2.59,0,0-.16,1.1-.64,1.59-.61,.64-1.29,.64-1.6,.68-2.24,.16-5.6,.17-5.6,.17,0,0-4.16-.04-5.44-.16-.36-.07-1.16-.05-1.76-.68-.48-.49-.64-1.59-.64-1.59,0,0-.16-1.29-.16-2.59v-1.21c0-1.29,.16-2.59,.16-2.59,0,0,.16-1.1,.64-1.59,.61-.64,1.29-.64,1.6-.68,2.24-.16,5.6-.16,5.6-.16h0s3.36,0,5.6,.16c.31,.04,.99,.04,1.6,.68,.48,.49,.64,1.59,.64,1.59,0,0,.16,1.29,.16,2.59v1.21Z"/>
      <polygon class="cls-1" points="14.35 18.08 18.67 15.84 14.35 13.58 14.35 18.08"/>
    </g>
  </g>
</svg>