<?xml version="1.0" encoding="UTF-8"?>
<svg id="Layer_2" data-name="Layer 2" xmlns="http://www.w3.org/2000/svg" viewBox="0 0 32 32">
  <defs>
    <style>
      .cls-1 {
        fill: #333;
      }
    </style>
  </defs>
  <g id="Layer_1-2" data-name="Layer 1">
    <path class="cls-1" d="M16,0C7.16,0,0,7.16,0,16s7.16,16,16,16,16-7.16,16-16S24.84,0,16,0Zm1.23,19.56c-.99,0-1.93-.54-2.24-1.15,0,0-.53,2.12-.65,2.53-.4,1.44-1.57,2.89-1.66,3.01-.06,.08-.2,.06-.22-.05-.03-.18-.32-2.01,.03-3.49,.18-.75,1.18-5.01,1.18-5.01,0,0-.29-.59-.29-1.45,0-1.36,.79-2.38,1.77-2.38,.84,0,1.24,.63,1.24,1.38,0,.84-.54,2.1-.81,3.26-.23,.98,.49,1.77,1.45,1.77,1.74,0,2.91-2.24,2.91-4.89,0-2.01-1.36-3.52-3.82-3.52-2.79,0-4.52,2.08-4.52,4.4,0,.8,.24,1.37,.61,1.8,.17,.2,.19,.28,.13,.51-.04,.17-.15,.58-.19,.74-.06,.23-.25,.32-.46,.23-1.28-.52-1.88-1.93-1.88-3.51,0-2.61,2.2-5.74,6.57-5.74,3.51,0,5.82,2.54,5.82,5.26,0,3.61-2,6.3-4.96,6.3Z"/>
  </g>
</svg>