<?xml version="1.0" encoding="UTF-8"?>
<svg id="Layer_2" data-name="Layer 2" xmlns="http://www.w3.org/2000/svg" viewBox="0 0 32 32">
  <defs>
    <style>
      .cls-1 {
        fill: #333;
      }
    </style>
  </defs>
  <g id="Layer_1-2" data-name="Layer 1">
    <path class="cls-1" d="M16,0C7.16,0,0,7.16,0,16s7.16,16,16,16,16-7.16,16-16S24.84,0,16,0Zm-4.42,23.99h-3.32V13.32h3.32v10.67Zm-1.66-12.13c-1.06,0-1.92-.86-1.92-1.92s.86-1.92,1.92-1.92,1.92,.86,1.92,1.92-.86,1.92-1.92,1.92Zm14.08,12.13h-3.32v-5.19c0-1.24-.02-2.83-1.72-2.83s-1.99,1.35-1.99,2.74v5.28h-3.31V13.32h3.18v1.46h.05c.44-.84,1.52-1.72,3.14-1.72,3.36,0,3.98,2.21,3.98,5.08v5.85Z"/>
  </g>
</svg>