<?xml version="1.0" encoding="UTF-8"?>
<svg id="Layer_2" data-name="Layer 2" xmlns="http://www.w3.org/2000/svg" viewBox="0 0 32 32">
  <defs>
    <style>
      .cls-1 {
        fill: #333;
      }
    </style>
  </defs>
  <g id="Layer_1-2" data-name="Layer 1">
    <path class="cls-1" d="M16,0C7.16,0,0,7.16,0,16s7.16,16,16,16,16-7.16,16-16S24.84,0,16,0Zm6.36,12.74c0,.14,0,.28,0,.42,0,4.34-3.3,9.34-9.34,9.34-1.85,0-3.58-.54-5.03-1.47,.26,.03,.52,.05,.78,.05,1.54,0,2.95-.52,4.08-1.41-1.44-.03-2.65-.98-3.07-2.28,.2,.04,.41,.06,.62,.06,.3,0,.59-.04,.86-.12-1.5-.3-2.63-1.63-2.63-3.22,0-.01,0-.03,0-.04,.44,.25,.95,.39,1.49,.41-.88-.59-1.46-1.59-1.46-2.73,0-.6,.16-1.17,.44-1.65,1.62,1.99,4.04,3.29,6.77,3.43-.06-.24-.09-.49-.09-.75,0-1.81,1.47-3.28,3.28-3.28,.94,0,1.8,.4,2.4,1.04,.75-.15,1.45-.42,2.08-.8-.25,.77-.77,1.41-1.44,1.82,.66-.08,1.3-.26,1.89-.52-.44,.66-1,1.24-1.64,1.7Z"/>
  </g>
</svg>