<?xml version="1.0" encoding="UTF-8"?>
<svg id="Layer_2" data-name="Layer 2" xmlns="http://www.w3.org/2000/svg" viewBox="0 0 32 32">
  <defs>
    <style>
      .cls-1 {
        fill: #333;
      }
    </style>
  </defs>
  <g id="Layer_1-2" data-name="Layer 1">
    <g>
      <path class="cls-1" d="M16.02,19.09c1.7,0,3.08-1.37,3.08-3.07s-1.38-3.07-3.08-3.07-3.08,1.37-3.08,3.07,1.38,3.07,3.08,3.07Z"/>
      <path class="cls-1" d="M19.56,9.82h2.16c.25,0,.45,.2,.45,.45v2.16c0,.25-.2,.45-.45,.45h-2.16c-.25,0-.45-.2-.45-.45v-2.16c0-.25,.2-.45,.45-.45Z"/>
      <path class="cls-1" d="M16,0C7.16,0,0,7.16,0,16s7.16,16,16,16,16-7.16,16-16S24.84,0,16,0Zm8,22.1c0,1.05-.85,1.9-1.9,1.9H9.9c-1.05,0-1.9-.85-1.9-1.9V9.9c0-1.05,.85-1.9,1.9-1.9h12.2c1.05,0,1.9,.85,1.9,1.9v12.2Z"/>
      <path class="cls-1" d="M20.89,16.02c0,2.68-2.18,4.86-4.87,4.86s-4.87-2.18-4.87-4.86c0-.44,.06-.87,.17-1.28h-1.5v6.96c0,.25,.2,.45,.45,.45h11.49c.25,0,.45-.2,.45-.45v-6.96h-1.5c.11,.41,.17,.84,.17,1.28Z"/>
    </g>
  </g>
</svg>