<?xml version="1.0" encoding="UTF-8"?>
<svg id="Layer_2" data-name="Layer 2" xmlns="http://www.w3.org/2000/svg" viewBox="0 0 61 61">
  <defs>
    <style>
      .cls-1 {
        stroke-width: 5px;
      }

      .cls-1, .cls-2 {
        fill: none;
        stroke: #333;
        stroke-linecap: square;
        stroke-miterlimit: 10;
      }

      .cls-2 {
        stroke-width: 2px;
      }
    </style>
  </defs>
  <g id="Layer_1-2" data-name="Layer 1">
    <g>
      <path class="cls-1" d="M39.89,37.09l-4.56,5.7c-7.07-4.15-12.96-10.04-17.11-17.11l5.7-4.56c1.37-1.1,1.83-2.99,1.12-4.6l-5.2-11.71c-.77-1.73-2.68-2.66-4.52-2.18L5.41,5.19c-1.91,.5-3.15,2.35-2.88,4.31,3.57,25.42,23.55,45.39,48.96,48.96,1.96,.27,3.81-.97,4.31-2.88l2.57-9.9c.48-1.84-.45-3.75-2.18-4.52l-11.71-5.2c-1.61-.72-3.5-.26-4.6,1.12Z"/>
      <path class="cls-2" d="M33.5,3.5c13.25,0,24,10.75,24,24"/>
      <path class="cls-2" d="M45.5,27.5c0-6.63-5.37-12-12-12"/>
    </g>
  </g>
</svg>