<?xml version="1.0" encoding="UTF-8"?>
<svg id="Layer_1" data-name="Layer 1" xmlns="http://www.w3.org/2000/svg" viewBox="0 0 500 215">
  <defs>
    <style>
      .cls-1 {
        fill: #333;
      }

      .cls-2 {
        fill: #3cf;
      }
    </style>
  </defs>
  <g>
    <g>
      <path class="cls-1" d="M360.09,105.47c1.62,1.43,3.62,2.15,6,2.15,2.13,0,3.95-.71,5.46-2.15,1.51-1.43,2.26-3.09,2.26-4.98s-.75-3.64-2.26-5.03c-1.51-1.4-3.33-2.09-5.46-2.09-2.38,0-4.38,.7-6,2.09-1.62,1.4-2.43,3.07-2.43,5.03s.81,3.55,2.43,4.98Z"/>
      <path class="cls-1" d="M435.16,62.55c-3.89-2.03-8.72-3.04-14.47-3.04-9.14,0-16,2.39-20.57,7.16-4.57,4.78-6.85,11.05-6.85,18.83v46.32c0,2.79-.87,5.02-2.6,6.71-1.73,1.69-4,2.53-6.79,2.53h-.48c-2.79,0-5.06-.85-6.79-2.53-1.74-1.69-2.6-3.92-2.6-6.71v-8.61c0-1.52-.78-2.75-2.35-3.68-1.57-.93-3.53-1.39-5.9-1.39s-4.32,.47-5.84,1.39c-1.52,.93-2.28,2.16-2.28,3.68v7.31c0,7.05,2.18,12.98,6.54,17.78,4.28,4.71,9.44,7.11,15.48,7.19,.06,0,.11,0,.17,0h7.65c.06,0,.11,0,.17,0,6.04-.08,11.2-2.48,15.48-7.19,4.36-4.8,6.54-10.73,6.54-17.78v-23.67h15.49c1.27,0,2.29-.62,3.05-1.86,.76-1.24,1.14-2.71,1.14-4.39s-.38-3.15-1.14-4.39c-.76-1.24-1.78-1.86-3.05-1.86h-15.49v-8.8c0-7.72,4.1-11.58,12.31-11.58,2.88,0,5.56,.57,8.06,1.71,2.5,1.14,4,1.71,4.51,1.71,1.78,0,3.3-.89,4.57-2.66,1.27-1.78,1.9-3.55,1.9-5.33,0-2.54-1.95-4.82-5.84-6.85Z"/>
    </g>
    <g>
      <path class="cls-1" d="M360.09,105.47c1.62,1.43,3.62,2.15,6,2.15,2.13,0,3.95-.71,5.46-2.15,1.51-1.43,2.26-3.09,2.26-4.98s-.75-3.64-2.26-5.03c-1.51-1.4-3.33-2.09-5.46-2.09-2.38,0-4.38,.7-6,2.09-1.62,1.4-2.43,3.07-2.43,5.03s.81,3.55,2.43,4.98Z"/>
      <path class="cls-2" d="M435.16,62.55c-3.89-2.03-8.72-3.04-14.47-3.04-9.14,0-16,2.39-20.57,7.16-4.57,4.78-6.85,11.05-6.85,18.83v46.32c0,2.79-.87,5.02-2.6,6.71-1.73,1.69-4,2.53-6.79,2.53h-.48c-2.79,0-5.06-.85-6.79-2.53-1.74-1.69-2.6-3.92-2.6-6.71v-8.61c0-1.52-.78-2.75-2.35-3.68-1.57-.93-3.53-1.39-5.9-1.39s-4.32,.47-5.84,1.39c-1.52,.93-2.28,2.16-2.28,3.68v7.31c0,7.05,2.18,12.98,6.54,17.78,4.28,4.71,9.44,7.11,15.48,7.19,.06,0,.11,0,.17,0h7.65c.06,0,.11,0,.17,0,6.04-.08,11.2-2.48,15.48-7.19,4.36-4.8,6.54-10.73,6.54-17.78v-23.67h15.49c1.27,0,2.29-.62,3.05-1.86,.76-1.24,1.14-2.71,1.14-4.39s-.38-3.15-1.14-4.39c-.76-1.24-1.78-1.86-3.05-1.86h-15.49v-8.8c0-7.72,4.1-11.58,12.31-11.58,2.88,0,5.56,.57,8.06,1.71,2.5,1.14,4,1.71,4.51,1.71,1.78,0,3.3-.89,4.57-2.66,1.27-1.78,1.9-3.55,1.9-5.33,0-2.54-1.95-4.82-5.84-6.85Z"/>
    </g>
  </g>
  <path class="cls-1" d="M325.84,150.27V64.61c0-1.53,.74-2.76,2.22-3.7,1.48-.94,3.45-1.4,5.9-1.4,2.29,0,4.23,.47,5.84,1.4,1.61,.94,2.41,2.17,2.41,3.7v85.66c0,1.28-.82,2.47-2.48,3.57-1.65,1.11-3.58,1.66-5.78,1.66s-4.21-.53-5.78-1.6c-1.57-1.06-2.35-2.28-2.35-3.64Z"/>
  <path class="cls-1" d="M294.05,150.27V64.61c0-1.53,.74-2.76,2.22-3.7,1.48-.94,3.45-1.4,5.9-1.4,2.29,0,4.23,.47,5.84,1.4,1.61,.94,2.41,2.17,2.41,3.7v85.66c0,1.28-.82,2.47-2.48,3.57-1.65,1.11-3.58,1.66-5.78,1.66s-4.21-.53-5.78-1.6c-1.57-1.06-2.35-2.28-2.35-3.64Z"/>
  <path class="cls-1" d="M227.58,129.5v-10.4c0-6.93,2.75-12.95,8.24-18.07,5.49-5.11,12.06-7.67,19.7-7.67s13.99,2.54,19.57,7.61c5.58,5.07,8.37,11.12,8.37,18.13v10.4c0,6.85-2.79,12.89-8.37,18.13-5.58,5.24-12.1,7.86-19.57,7.86s-13.99-2.62-19.57-7.86c-5.58-5.24-8.37-11.29-8.37-18.13Zm16.38-.52c0,2.99,1.09,5.66,3.27,7.99,2.18,2.33,4.79,3.49,7.81,3.49s5.52-1.16,7.74-3.49c2.22-2.33,3.34-4.99,3.34-7.99v-10.23c0-2.83-1.11-5.41-3.34-7.74-2.23-2.33-4.81-3.49-7.74-3.49s-5.62,1.15-7.81,3.43c-2.18,2.29-3.27,4.89-3.27,7.8v10.23Z"/>
  <path class="cls-1" d="M181.34,150.2v-50.71c0-1.6,.81-2.89,2.43-3.86,1.62-.98,3.73-1.47,6.32-1.47,2.31,0,4.24,.49,5.76,1.48,1.53,.99,2.29,2.29,2.29,3.9v5.51c1.48-3.14,3.8-5.87,6.94-8.2,3.15-2.33,6.53-3.5,10.14-3.5h4.04c1.66,0,3.15,.74,4.48,2.22,1.33,1.48,2,3.17,2,5.08s-.67,3.74-2,5.21c-1.33,1.48-2.83,2.21-4.48,2.21h-4.28c-4.23,0-7.93,1.76-11.1,5.28-3.17,3.52-4.76,8.12-4.76,13.78v23.06c0,1.29-.92,2.49-2.76,3.61-1.84,1.12-3.95,1.67-6.34,1.67s-4.55-.54-6.21-1.61c-1.66-1.08-2.48-2.3-2.48-3.68Z"/>
  <path class="cls-1" d="M125.47,129.5v-10.15c0-7.78,2.28-14.05,6.85-18.83,4.57-4.78,11.43-7.16,20.57-7.16,5.75,0,10.58,1.01,14.47,3.04,3.89,2.03,5.84,4.31,5.84,6.85,0,1.78-.63,3.55-1.9,5.33-1.27,1.78-2.79,2.66-4.57,2.66-.51,0-2.01-.57-4.51-1.71-2.5-1.14-5.19-1.71-8.06-1.71-8.21,0-12.31,3.86-12.31,11.58v10.07c0,7.72,4.15,11.58,12.44,11.58,2.88,0,5.54-.61,8-1.84,2.45-1.22,4.02-1.84,4.7-1.84,2.03,0,3.7,.85,5.01,2.54,1.31,1.69,1.97,3.42,1.97,5.2,0,2.62-2.05,5.01-6.16,7.16-4.11,2.16-9.04,3.23-14.79,3.23-9.23,0-16.12-2.37-20.69-7.1-4.57-4.73-6.85-11.03-6.85-18.89Z"/>
  <path class="cls-1" d="M59,139.52c0-1.98,.73-3.97,2.19-5.99,1.46-2.02,3.11-3.03,4.94-3.03,1.08,0,2.32,.54,3.69,1.61s2.71,2.26,4.01,3.55c1.29,1.29,3.15,2.48,5.57,3.55,2.42,1.07,5.09,1.61,8.01,1.61,4.01,0,7.34-.94,10.01-2.84,2.67-1.89,4.01-4.68,4.01-8.38,0-2.58-.73-4.87-2.19-6.89-1.46-2.02-3.38-3.69-5.76-5.03-2.38-1.33-4.99-2.62-7.82-3.87-2.84-1.24-5.7-2.64-8.57-4.19s-5.51-3.29-7.89-5.22c-2.38-1.93-4.3-4.51-5.76-7.73-1.46-3.22-2.19-6.89-2.19-11.02,0-4.62,.9-8.7,2.69-12.23,1.79-3.53,4.19-6.28,7.2-8.24,3-1.96,6.22-3.4,9.64-4.32,3.42-.91,7.05-1.37,10.89-1.37,2.17,0,4.46,.16,6.88,.46,2.42,.31,4.99,.82,7.7,1.52,2.71,.71,4.92,1.81,6.63,3.31,1.71,1.5,2.57,3.26,2.57,5.29,0,1.91-.59,3.89-1.75,5.94-1.17,2.04-2.75,3.06-4.76,3.06-.75,0-2.8-.82-6.13-2.45-3.34-1.63-7.05-2.45-11.14-2.45-4.51,0-7.99,.88-10.45,2.64-2.46,1.76-3.69,4.19-3.69,7.28,0,2.49,1,4.66,3,6.51,2,1.85,4.48,3.35,7.45,4.51,2.96,1.16,6.17,2.62,9.64,4.38,3.46,1.76,6.67,3.67,9.64,5.73,2.96,2.06,5.44,5.05,7.45,8.96,2,3.91,3,8.48,3,13.72,0,8.81-2.73,15.61-8.2,20.4-5.47,4.79-12.66,7.18-21.59,7.18-7.93,0-14.73-1.67-20.4-5.03-5.68-3.35-8.51-7-8.51-10.95Z"/>
</svg>